# xmcd CD database file
#
# Track frame offsets:
#	182
#	20360
#	42727
#	72562
#	87150
#	125517
#	140157
#	162352
#	189335
#	216492
#	233115
#	255470
#
# Disc length: 3701 seconds
#
# Revision: 2
# Processed by: cddbd v1.5.2PL0 Copyright (c) Steve Scherf et al.
# Submitted via: CDex 1.70beta2
#
DISCID=b30e730c
DTITLE=Peace And Tranquillity - Sounds of Nature
DYEAR=1995
DGENRE=Ambient
TTITLE0=Earl Morning in the Forest
TTITLE1=Sunrise
TTITLE2=A Small forest Stream in May
TTITLE3=A Break
TTITLE4=Rain in the Forest
TTITLE5=Blackbird in Provence
TTITLE6=The Brook in the Forest
TTITLE7=Trushes at Dusk
TTITLE8=Nightingales
TTITLE9=A Coastal Estuary
TTITLE10=The Music of the Sea
TTITLE11=Le chant magique des baleines
EXTD=Reader´s Digest YEAR: 1995
EXTT0=
EXTT1=
EXTT2=
EXTT3=
EXTT4=
EXTT5=
EXTT6=
EXTT7=
EXTT8=
EXTT9=
EXTT10=
EXTT11=
PLAYORDER=
